inDegrees=no
num_controls=7
num_derivatives=13
num_iterations=93
num_multipliers=7
num_parameters=0
num_slacks=7
num_states=26
objective=0.455757
objective_accelerations=0.041949
objective_balance=0.000761
objective_effort=0.034566
objective_height=0.372405
objective_ligament=0.006077
solver_duration=1056.186228
status=Solve_Succeeded
success=true
DataType=double
version=3
OpenSimVersion=4.5
endheader
time	/jointset/ground_pelvis/pelvis_tilt/value	/jointset/ground_pelvis/pelvis_tx/value	/jointset/ground_pelvis/pelvis_ty/value	/jointset/hip_r/hip_flexion_r/value	/jointset/hip_r/hip_adduction_r/value	/jointset/hip_r/hip_rotation_r/value	/jointset/back/lumbar_extension/value	/jointset/patellofemoral_r/patellar_flexion_r/value	/jointset/knee_r/knee_flexion_r/value	/jointset/knee_r/knee_adduction_r/value	/jointset/knee_r/knee_rotation_r/value	/jointset/ankle_r/ankle_angle_r/value	/jointset/subtalar_r/subtalar_angle_r/value	/jointset/ground_pelvis/pelvis_tilt/speed	/jointset/ground_pelvis/pelvis_tx/speed	/jointset/ground_pelvis/pelvis_ty/speed	/jointset/hip_r/hip_flexion_r/speed	/jointset/hip_r/hip_adduction_r/speed	/jointset/hip_r/hip_rotation_r/speed	/jointset/back/lumbar_extension/speed	/jointset/patellofemoral_r/patellar_flexion_r/speed	/jointset/knee_r/knee_flexion_r/speed	/jointset/knee_r/knee_adduction_r/speed	/jointset/knee_r/knee_rotation_r/speed	/jointset/ankle_r/ankle_angle_r/speed	/jointset/subtalar_r/subtalar_angle_r/speed	/forceset/tau_hip_flexion_r	/forceset/tau_hip_adduction_r	/forceset/tau_hip_rotation_r	/forceset/tau_knee_flexion_r	/forceset/tau_ankle_angle_r	/forceset/tau_subtalar_angle_r	/forceset/tau_lumbar_extension	lambda_cid13_p0	lambda_cid14_p0	lambda_cid14_p1	lambda_cid14_p2	lambda_cid14_p3	lambda_cid14_p4	lambda_cid14_p5	/jointset/ground_pelvis/pelvis_tilt/accel	/jointset/ground_pelvis/pelvis_tx/accel	/jointset/ground_pelvis/pelvis_ty/accel	/jointset/hip_r/hip_flexion_r/accel	/jointset/hip_r/hip_adduction_r/accel	/jointset/hip_r/hip_rotation_r/accel	/jointset/back/lumbar_extension/accel	/jointset/patellofemoral_r/patellar_flexion_r/accel	/jointset/knee_r/knee_flexion_r/accel	/jointset/knee_r/knee_adduction_r/accel	/jointset/knee_r/knee_rotation_r/accel	/jointset/ankle_r/ankle_angle_r/accel	/jointset/subtalar_r/subtalar_angle_r/accel	gamma_cid13_p0	gamma_cid14_p0	gamma_cid14_p1	gamma_cid14_p2	gamma_cid14_p3	gamma_cid14_p4	gamma_cid14_p5
1.5	-0.04874775556109719	0.04776110504325429	0.8326157531302149	0.7197388478012837	-0.2515015376969181	-0.06866858752172994	-0.6174820269096492	0.8954358358582668	0.8954358358582341	0.06501222529979683	0.1740244915282731	0.2984810754985341	0.09497995625658308	0.3733346317671268	0.1977762974005564	0.4359127328281001	-1.768900475246846	0.0426910515955047	-0.4808180584738355	0.8001660837303483	-1.838546484555531	-1.838546484555535	0.09806426401011414	0.003586419475170498	-0.5187372603175661	-0.1050812472856458	-0.1371763586517228	-0.003603918856808009	0.03392333166536436	-0.308026526736502	0.007788344221472072	-0.01512350723072262	0.1990352656385732	-11.08496975417716	-40.52043343058975	-12.35049267592261	0.8917710388232636	-1.672872548175983	-635.6606116526864	61.40783701938089	-0.002022994759621448	0.4643837600025685	-0.4173675940753073	-0.8391647236075593	0.1647353057394049	-0.1296470797866799	1.635276947748721	-1.319561892358583	-1.319561892358584	0.5360642912738454	-0.008523656216331645	-0.533992645524858	0.1373795196734019	7.495632279507035e-08	1.538692343450459e-08	-9.653771536298521e-07	2.861960648875525e-07	9.153240258262595e-08	1.303788115458021e-07	-6.687278440335482e-07
1.51	-0.04501481505483969	0.04976186177251509	0.8369531140868884	0.7020098881938623	-0.2510669276784275	-0.07348318109599666	-0.6093999465700194	0.8769868020635537	0.8769868020635863	0.06602043927555856	0.1740609192176215	0.293267574798032	0.09393533626886776	0.3732028720166723	0.2023495791537546	0.4314673837514938	-1.776650514879796	0.04422014779724936	-0.4820423575922771	0.8161353847649024	-1.850996194770772	-1.850996194770778	0.1035990551346564	0.003689274661869448	-0.5238835999753336	-0.1038374585153411	-0.130762368231094	-0.005080141588670677	0.03317986942557598	-0.3042709189911609	0.009695786822841284	-0.01554588492320066	0.1930034702754527	-12.05673282837966	-39.66612425270835	-12.2582463884792	0.7330264022280309	-1.805761970777329	-631.5104986936017	61.24886225433003	-0.02634023945883922	0.4499968030193571	-0.4718997092687703	-0.7067808887909653	0.1453628383045199	-0.1099528071500812	1.560566766747777	-1.168081136449415	-1.168081136449559	0.5651353029587394	0.01826210284211934	-0.4930357641893971	0.1185657173288826	8.321143241772209e-08	2.445862844615606e-08	-9.685669045606949e-07	3.529642192247153e-07	8.660981786748722e-08	1.435547152306937e-07	-6.778777055757386e-07
1.52	-0.0412847097009396	0.05180759060331618	0.8412432653238331	0.6842106567289806	-0.250617353485738	-0.0783082439573025	-0.6011616112029564	0.8584211900566191	0.8584211900567167	0.06708459091854321	0.1740980898581836	0.2880049944732951	0.09290329160117937	0.3727676012953944	0.206770717708615	0.4264707888822676	-1.782954846738833	0.04568388643549691	-0.4829119158818047	0.8314170892170126	-1.861862126999715	-1.861862126999722	0.1092517974557713	0.003735009717730149	-0.5285531851645687	-0.1025661832802405	-0.1243483778104733	-0.006556364320534535	0.03243640718580555	-0.3005153112458213	0.01160322942420972	-0.01596826261568102	0.1869716749123252	-13.02780193808224	-38.8145134853873	-12.16464551518215	0.5719783298176535	-1.945906399012275	-627.397280145148	61.12789359233848	-0.06272518892424667	0.4339551203349815	-0.5276167525992886	-0.5500231688246512	0.1516637930399943	-0.05869891400384095	1.497757631259984	-1.002806295099053	-1.002806295099054	0.5596545305883635	-0.01994768238401812	-0.4386417518183676	0.142876812632583	9.131701231301571e-08	3.382006321031745e-08	-9.735465041059554e-07	4.192686490514698e-07	8.156783612203564e-08	1.582014462648446e-07	-6.908821491432696e-07
1.53	-0.03756046573339147	0.05389671423948873	0.8454807489396632	0.6663556367029173	-0.2501535342277778	-0.08314018195165424	-0.5927740943245779	0.8397549161800986	0.8397549161801323	0.06820596782864966	0.1741354305989855	0.2826981171280475	0.09188400798623572	0.3720291470001926	0.2110224401198471	0.4209387319995825	-1.787798261419639	0.04706715093402294	-0.4834242312943468	0.845953225681513	-1.87111558405856	-1.871115584058565	0.1150338833851314	0.003726513266688935	-0.5327382977677741	-0.1012867466907202	-0.1178313826752903	-0.008137958021066306	0.03167884933931227	-0.2969518733305636	0.01363792813373176	-0.01645070558380961	0.1808482974233294	-13.99457912039547	-37.9375023664991	-12.09760265336723	0.4207836824281315	-2.068604655682928	-623.4312886655799	61.00344993103918	-0.08720881447085692	0.4160601169037204	-0.5790438809854683	-0.4138607300331539	0.1297372655981019	-0.03963923404067488	1.411582537513693	-0.8450764779885511	-0.8450764779884111	0.5889017482348409	0.007781094459238125	-0.3958205495357066	0.1209528545390252	9.926371687299129e-08	4.348933583652058e-08	-9.804278178040348e-07	4.850803715859157e-07	7.639899503187666e-08	1.744109313575835e-07	-7.079820861127249e-07
1.54	-0.03384516696172438	0.05602741096285101	0.8496603032416901	0.6484597105075814	-0.2496762664273654	-0.08797567137596293	-0.5842452079048606	0.8210044155196471	0.8210044155196163	0.06938544882287183	0.1741725027194615	0.2773519137497752	0.09087761389167269	0.3709785621188774	0.2150853351465613	0.4148849261216022	-1.791136080593423	0.04837359492611771	-0.4836222018733391	0.8596909974847537	-1.878707483785861	-1.878707483785865	0.1208726142794909	0.003681285652581884	-0.536418391769543	-0.0999882792041083	-0.1113143875401136	-0.009719551721597358	0.03092129149282966	-0.2933884354153073	0.01567262684325359	-0.01693314855193731	0.1747249199343279	-14.95445876318722	-37.06297342214783	-12.02917153143063	0.267284930860699	-2.198912948791072	-619.4996980407038	60.92030195887764	-0.1251513061468538	0.3961896434313767	-0.631966551658383	-0.2489040674199162	0.1362996917537526	0.004170052706146549	1.3380846990081	-0.670494828790308	-0.670494828790308	0.5709835235882149	-0.02729391499722778	-0.3376380315311023	0.1466829920509219	1.071184403036968e-07	5.341332119068441e-08	-9.907787968936236e-07	5.503201112089978e-07	7.121375563778951e-08	1.929891072954058e-07	-7.293902722759802e-07
1.55	-0.03014190630152114	0.05819773599396456	0.8537767830729677	0.6305379200037169	-0.2491863827596222	-0.09281149182627749	-0.5755831294194734	0.8021863474724583	0.8021863474724403	0.07062373161617538	0.1742089111759996	0.2719714333702589	0.08988420993725427	0.3696200943431026	0.2189420478487258	0.4083298815342083	-1.792961487112721	0.04958864523967299	-0.4834920986876151	0.8725762451271802	-1.884616785157261	-1.884616785157267	0.1267867383566086	0.003593870786454146	-0.5395893147313701	-0.098689746904151	-0.1047496373950389	-0.01136211380991667	0.03015329356406887	-0.2900193515399928	0.01779404120105372	-0.01749913104809079	0.1685698309172359	-15.90526761173797	-36.18261377959684	-12.00267405052676	0.1280947847001138	-2.300945667588239	-615.7958479014601	60.80665596235556	-0.1492109372147157	0.3747812231026748	-0.6794019754726958	-0.110271430080961	0.1119487107931168	0.02505772981320722	1.241476627082077	-0.5077705515273196	-0.5077705515275285	0.6019175401669044	-0.0003440937650704807	-0.2935352871345013	0.1217706019204862	1.148671854767651e-07	6.363077990532467e-08	-1.005127433934299e-06	6.149008270428999e-07	6.600962254569818e-08	2.14296427032998e-07	-7.55762310771222e-07
1.56	-0.02645383360385821	0.06040550197999865	0.8578252867457328	0.6126056929374806	-0.2486847803868167	-0.09764448578907292	-0.5667966520916174	0.7833178618595138	0.7833178618595065	0.07192121378832975	0.1742442697196048	0.2665619005893993	0.08890385775642588	0.3679409696104451	0.2225735261306642	0.4012896944191004	-1.793223393067866	0.050717335938697	-0.483056904369583	0.8845707659784874	-1.888790996937155	-1.888790996937163	0.1327124900494593	0.003471303066543823	-0.5422288720382366	-0.09737792448609921	-0.09818488724997099	-0.01300467589823557	0.02938529563530424	-0.28665026766468	0.01991545555885359	-0.01806511354424362	0.162414741900138	-16.84526172137731	-35.30377158329898	-11.97444743372458	-0.01365034822094496	-2.412686490156919	-612.1136761001784	60.73680769838118	-0.1892826975233245	0.3511427593861196	-0.7289950572012142	0.06379604541092791	0.1190277688475119	0.06518827916778021	1.159939340784255	-0.323476910488839	-0.32347691048884	0.5733090467348149	-0.03432448575379272	-0.2313649005389765	0.1493410156698352	1.222655591196571e-07	7.343547755378366e-08	-1.023555742729e-06	6.758153347971163e-07	6.134637297744042e-08	2.368662560004519e-07	-7.857349627485513e-07
1.57	-0.02278411425585939	0.06264840523137505	0.8618010503262893	0.5946786159613201	-0.2481723819468306	-0.1024715761472277	-0.5578948716509918	0.7644163246001185	0.7644163246000615	0.07327809804360447	0.1742782260309274	0.2611286226008747	0.08793661140362927	0.365947696232698	0.2259639979835482	0.3937890539089078	-1.791922453761895	0.05174656466457744	-0.4823142410986049	0.8956240049756206	-1.891215846317653	-1.891215846317661	0.1386579331246534	0.00331507176422807	-0.5443338422585227	-0.09606884107911526	-0.09159719280755889	-0.01473267972465164	0.02860948841870067	-0.2835288936081375	0.02214020837843251	-0.01870898879691257	0.156266042528923	-17.77315175040231	-34.41848737793763	-11.98443529892169	-0.1430044001337518	-2.502768630434651	-608.74284458887	60.6555231950008	-0.2126243929048635	0.3265414867121636	-0.7716387319035073	0.2036844774253619	0.09252683857427324	0.08602017043589143	1.053818603573422	-0.156924304892141	-0.1569243048921403	0.6040678623833352	-0.006881919072468966	-0.1861002297351522	0.1219911161698072	1.292259683498286e-07	8.272422386951608e-08	-1.047083641216231e-06	7.321470824517261e-07	5.735922781397462e-08	2.610142215052328e-07	-8.202083815784898e-07
1.58	-0.01913598258863681	0.06492392161897494	0.8656995994649487	0.5767726366990672	-0.2476501599367628	-0.1072897969087979	-0.5488873983355155	0.7454995517763071	0.7454995517761975	0.07469421791452925	0.1743104981359025	0.255677087480755	0.08698251570749393	0.3636234334547659	0.2290961533753638	0.3858468060397041	-1.789003850286514	0.05268204995509622	-0.4812829850527029	0.9057093409485711	-1.891838109820626	-1.891838109820633	0.1445596131787111	0.003134461797831166	-0.5458802983572778	-0.09474779315384567	-0.08500949836515238	-0.01646068355106563	0.02783368120208519	-0.2804075195515963	0.02436496119801169	-0.01935286404957814	0.150117343157703	-18.68811644848689	-33.53339711614527	-11.99230294840841	-0.2751578816174769	-2.605605152999614	-605.3758289338667	60.61963629662161	-0.255480577560282	0.2994794671723836	-0.8173165290034561	0.3873288792932346	0.1002790817751978	0.1229068341525862	0.9663587359477791	0.03704026501624404	0.03704026501624368	0.5645564425075316	-0.03920021857007677	-0.1196620762328301	0.1517339193269796	1.358596966447406e-07	9.13730832289605e-08	-1.073655338274284e-06	7.844734653859319e-07	5.40272257434591e-08	2.854450285986514e-07	-8.566045274628442e-07
1.59	-0.01551266630540333	0.0672294230642808	0.869516629225058	0.5589037930595802	-0.2471191053076106	-0.1120962599260854	-0.5397841054852278	0.7265855120348463	0.7265855120348013	0.07616921192749918	0.1743408472609532	0.2502128497100626	0.08604161487539126	0.3609860660700748	0.2319562323845239	0.3774945274910226	-1.784493875282315	0.05351195777609169	-0.4799643318487	0.914775773116313	-1.890664262202497	-1.890664262202489	0.150425448629949	0.002931454917827709	-0.5468720071506974	-0.09343052487656145	-0.07845213276447978	-0.01824721411379941	0.02705097856261167	-0.2775560646811122	0.02665450907776494	-0.02008567070215691	0.1440364819920229	-19.58981726744543	-32.6619371944477	-12.04670163153161	-0.3935852434310749	-2.676279070493657	-602.4310690162469	60.56350364259672	-0.2759221195265084	0.272096648197135	-0.8538112818283011	0.5234927795519412	0.07183874191012959	0.1433288984469869	0.8507670583439431	0.203364302706636	0.2033643027089898	0.5954028860234696	-0.01129510760312795	-0.07460583854710999	0.1219252163894397	1.420500722418005e-07	9.915352457629987e-08	-1.104357904821311e-06	8.313639961995896e-07	5.158434644194749e-08	3.102596921337923e-07	-8.956100886353343e-07
